<?xml version="1.0" encoding="UTF-8" standalone="no"?> <svg id="Capa_1" enable-background="new 0 0 511.883 511.883" height="512" viewBox="0 0 511.883 511.883" width="512" xmlns="http://www.w3.org/2000/svg"><g><path d="m270.996 392.44v119.443h51.629l6.963-116.793c-8.127 3.923-17.236 6.123-26.848 6.123-11.596 0-22.453-3.208-31.744-8.773z"/><path d="m182.418 395.304 6.949 116.579h51.629v-119.713c-9.39 5.734-20.416 9.043-32.201 9.043-9.429 0-18.368-2.126-26.377-5.909z"/><path d="m428.804 305.083c-4.06-86.62-72.095-156.785-157.808-164.208v-22.342c16.523-6.116 28.333-22.031 28.333-40.653 0-33.578-29.377-63.924-32.727-67.273l-10.606-10.607-10.606 10.606c-3.35 3.35-32.727 33.695-32.727 67.273 0 18.623 11.81 34.537 28.333 40.653v22.332c-85.748 7.37-153.831 77.528-157.917 164.161-.026 1.24-.047 2.481-.047 3.727v21.802c0 12.529 4.272 24.069 11.413 33.279 5.541 4.605 12.654 7.379 20.405 7.379 17.63 0 31.973-14.343 31.973-31.973h30c0 17.63 14.343 31.973 31.972 31.973s31.972-14.343 31.972-31.973h30c0 .779.038 1.549.093 2.314h.136v1.449c1.869 15.862 15.388 28.209 31.743 28.209 17.629 0 31.972-14.343 31.972-31.973h30c0 17.63 14.343 31.973 31.972 31.973 7.828 0 15.005-2.833 20.569-7.521 7.056-9.158 11.281-20.602 11.306-33.025l.291-21.713.001-.201c.001-1.225-.02-2.447-.046-3.668zm-112.474-58.87h-30v-30h30zm44.666 45h-30v-30h30z"/><path d="m114.85 401.213c-1.462 0-2.907-.069-4.344-.169l14.72 110.839h34.087l-7.335-123.055c-10.355 7.773-23.212 12.385-37.128 12.385z"/><path d="m359.996 389.146-7.317 122.736h34.087l14.729-110.875c-1.589.123-3.19.205-4.81.205-13.722.001-26.41-4.489-36.689-12.066z"/></g></svg>