<svg xmlns:x="http://ns.adobe.com/Extensibility/1.0/" xmlns:i="http://ns.adobe.com/AdobeIllustrator/10.0/" xmlns:graph="http://ns.adobe.com/Graphs/1.0/" xmlns="http://www.w3.org/2000/svg" xmlns:xlink="http://www.w3.org/1999/xlink" xmlns:a="http://ns.adobe.com/AdobeSVGViewerExtensions/3.0/" version="1.1" x="0px" y="0px" viewBox="0 0 100 125" enable-background="new 0 0 100 100" xml:space="preserve"><metadata><?xpacket begin="&#65279;" id="W5M0MpCehiHzreSzNTczkc9d"?><x:xmpmeta xmlns:x="adobe:ns:meta/" x:xmptk="Adobe XMP Core 5.5-c014 79.151739, 2013/04/03-12:12:15        "/><?xpacket end="w"?></metadata><path d="M82.2197266,48.0263672c-0.5205078-0.300293-1.0908203-0.5927734-1.7070313-0.875  c0.041687,0.1578369,0.0731201,0.324585,0.109436,0.4870605c0.0187378,0.0836792,0.0390015,0.1658936,0.0563354,0.2508545  c0.0946655,0.4646606,0.1680908,0.9476318,0.2202759,1.4483032c0.0098877,0.0946655,0.0166626,0.1917114,0.0250244,0.2876587  C80.9694824,50.1502686,81,50.6878662,81,51.25c0,0.5522461-0.4472656,1-1,1s-1-0.4477539-1-1  c0-0.5222778-0.024292-1.0222778-0.067688-1.5040894c-0.0144043-0.1600952-0.0429077-0.3066406-0.0620728-0.4621582  c-0.0385742-0.312561-0.0774536-0.6248779-0.1352539-0.9186401c-0.0344849-0.175354-0.0824585-0.3372803-0.1237793-0.5057983  c-0.0622559-0.2539673-0.1244507-0.5081177-0.2021484-0.7463989c-0.055481-0.1699829-0.1223755-0.3279419-0.18573-0.4898071  c-0.062561-0.1600952-0.1288452-0.3162231-0.1990356-0.4682007c-3.1202393-1.1000977-7.0645752-1.9949951-11.7635498-2.6690674  c0.0268555,0.0343628,0.0513306,0.074646,0.0778809,0.1097412c0.0946045,0.125,0.1865234,0.2559814,0.2772217,0.390564  c0.0513306,0.0761108,0.1030273,0.1508789,0.1529541,0.2301636c0.098877,0.1569214,0.1932983,0.322998,0.2861938,0.4927368  c0.0358887,0.0656738,0.0738525,0.1270752,0.1087646,0.1946411c0.1245728,0.2408447,0.243042,0.4933472,0.3538208,0.7599487  c0.0222168,0.0534668,0.0411377,0.1126709,0.0627441,0.1672363c0.0860596,0.2172241,0.168396,0.4406738,0.2442017,0.6751709  c0.0330811,0.1022339,0.0621338,0.2106323,0.0931396,0.3163452c0.0584717,0.1995239,0.1141968,0.4030762,0.1647339,0.6149292  c0.0292969,0.1226196,0.0560913,0.2484741,0.0825806,0.3753052c0.0443726,0.2127075,0.0839233,0.4320679,0.1199341,0.6569214  c0.0213013,0.1331177,0.0426636,0.2658691,0.0609131,0.4033203c0.0328369,0.2476807,0.0580444,0.5057983,0.0803833,0.7680054  c0.0106812,0.1251221,0.0244751,0.2457275,0.0326538,0.3742065C68.4840698,50.4116211,68.5,50.8205566,68.5,51.25  c0,0.5522461-0.4472656,1-1,1s-1-0.4477539-1-1c0-0.5089111-0.0216064-0.99823-0.0632324-1.4684448  c-0.0142822-0.1608276-0.0441895-0.3066406-0.0632324-0.4628906c-0.0367432-0.3008423-0.0698242-0.6053467-0.1243286-0.8887329  c-0.0332642-0.1730957-0.083252-0.3293457-0.1231689-0.4959106c-0.0593262-0.2474976-0.1129761-0.5006104-0.1867065-0.7333984  c-0.0531616-0.1677246-0.1228638-0.3180542-0.1834106-0.4780273c-0.0800781-0.2114868-0.1543579-0.4290771-0.2473755-0.6268311  c-0.072876-0.1549072-0.1618652-0.2921753-0.2426758-0.4384766c-0.1002197-0.1815796-0.1948242-0.3693237-0.3070679-0.5375366  c-0.0927124-0.138916-0.2009277-0.2600708-0.3018188-0.3897095c-0.1196899-0.1538696-0.2341919-0.3137207-0.3652954-0.4543457  c-0.1121216-0.1203613-0.2391357-0.2229614-0.3596191-0.3334961c-0.1390381-0.1276245-0.2733765-0.2609253-0.4233398-0.3753052  c-0.1312256-0.1000977-0.2766724-0.1826172-0.4162598-0.2724609c-0.1405029-0.0904541-0.2783813-0.1842041-0.4272461-0.2641602  c-6.3851318-0.6978149-11.7874756-0.7724609-12.5714722-0.7797852c0.0313721,0.0266724,0.0612793,0.0604858,0.0925293,0.0878906  c0.1779785,0.1557617,0.354248,0.3199463,0.5265503,0.5c0.0705566,0.0737915,0.1373901,0.15802,0.206665,0.2360229  c0.1329956,0.1497803,0.2647705,0.3016968,0.3920288,0.4678955c0.0756226,0.0987549,0.1469116,0.2068481,0.2201538,0.3116455  c0.114624,0.1640625,0.2271118,0.3318481,0.335022,0.5113525c0.0723877,0.1204834,0.1409302,0.2477417,0.2098999,0.3754883  c0.0999146,0.1849365,0.1957397,0.3766479,0.2875366,0.5772095c0.0644531,0.1408081,0.1264038,0.2850952,0.1864014,0.4338989  c0.0853882,0.2115479,0.1640015,0.4337769,0.239624,0.6620483c0.0526733,0.1589966,0.1051636,0.3174438,0.1526489,0.4848022  c0.0701294,0.2468262,0.1298218,0.5090942,0.1878052,0.7745972c0.0375366,0.1717529,0.078125,0.3383179,0.1101685,0.5181274  c0.0543213,0.3042603,0.0934448,0.6297607,0.1310425,0.9578247c0.0188599,0.1644287,0.0447388,0.3187256,0.0591431,0.4893188  C53.4740601,50.1489868,53.5,50.6825562,53.5,51.25c0,0.5522461-0.4472656,1-1,1s-1-0.4477539-1-1  c0-0.4197388-0.0140991-0.819519-0.0402832-1.2012329c-0.0090942-0.1320801-0.0274048-0.250061-0.0394287-0.3776855  c-0.0227051-0.241333-0.0429688-0.4863281-0.0757446-0.7122803c-0.0204468-0.1414795-0.0500488-0.2684937-0.0742798-0.4041138  c-0.0349731-0.1957397-0.0666504-0.3967285-0.1088867-0.5805664c-0.031311-0.1362305-0.0708008-0.2584839-0.105896-0.3883667  c-0.0449829-0.1665649-0.086853-0.3383179-0.1376953-0.494751c-0.0419922-0.1290283-0.0911255-0.244873-0.1367798-0.3671875  c-0.0528564-0.1415405-0.1029053-0.2883301-0.1604004-0.4211426c-0.0510864-0.118042-0.1082153-0.2237549-0.1627197-0.335083  c-0.0598145-0.1223145-0.1173096-0.2493896-0.1809082-0.3638306c-0.0584717-0.1051636-0.1218872-0.1991577-0.1832275-0.2979736  c-0.0662231-0.1066895-0.1306152-0.2175293-0.1998901-0.3170166c-0.0647583-0.0928955-0.1334229-0.1757202-0.2005615-0.2625732  c-0.0710449-0.0919189-0.1408081-0.1875-0.2142944-0.2728882c-0.0703125-0.081604-0.1434937-0.1541138-0.2156372-0.2299805  c-0.0745239-0.0783081-0.1480713-0.1599121-0.2242432-0.2321777c-0.0741577-0.0704346-0.1502686-0.1325073-0.225769-0.1974487  c-0.0772705-0.0664673-0.1539307-0.1357422-0.2322998-0.1967163c-0.0768433-0.0598145-0.1547241-0.1124268-0.2322998-0.1672363  c-0.0785522-0.055481-0.1567383-0.1132202-0.2357178-0.1636963c-0.0786743-0.050293-0.1574707-0.0941772-0.2363281-0.1398315  c-0.0787354-0.0455322-0.1574097-0.0930786-0.2359009-0.1341553c-0.0785522-0.0411377-0.1564941-0.0766602-0.2346191-0.1135864  c-0.078125-0.0368652-0.1565552-0.0754395-0.2339478-0.1082764s-0.1533813-0.0609741-0.2296753-0.0900879  c-0.076416-0.0291138-0.1530762-0.0595093-0.2281494-0.085083c-0.0741577-0.0252686-0.1463013-0.0465698-0.218811-0.0685425  c-0.074585-0.022644-0.1497803-0.0462036-0.2223511-0.0656128c-0.0690308-0.0184937-0.135498-0.0337524-0.2024536-0.0494995  c-0.0545654-0.0128784-0.1090698-0.0256958-0.1621094-0.0368652c-3.4070435,0.1573486-6.7913818,0.4354248-9.8989258,0.8125  c0.0106201,0.0125122,0.0205688,0.0276489,0.031189,0.0402832c0.1513062,0.1796265,0.2999268,0.3696899,0.444397,0.5736084  c0.0236206,0.0333862,0.0459595,0.0701294,0.069397,0.104126c0.1199951,0.1744385,0.2363892,0.3585815,0.3496704,0.5512695  c0.0372925,0.0634766,0.0742188,0.1271973,0.1106567,0.192688c0.1212769,0.2179565,0.2384644,0.4451294,0.3490601,0.6864014  c0.0101318,0.0220337,0.0212402,0.0418091,0.03125,0.0640869c0.1171875,0.2608032,0.2252197,0.5394897,0.3275146,0.8285522  c0.0281982,0.0796509,0.0543823,0.1621704,0.0812988,0.2440186c0.078125,0.2376099,0.1505127,0.4849243,0.2172241,0.7417603  c0.0201416,0.0774536,0.0418701,0.1519165,0.0609131,0.2311401c0.0786133,0.3278198,0.147644,0.6704102,0.2055664,1.0296631  c0.0125122,0.0776367,0.0213623,0.1602783,0.0328369,0.2393799c0.0432129,0.2982178,0.0785522,0.6075439,0.1061401,0.9276733  c0.0095825,0.1115112,0.0192871,0.2226563,0.0269165,0.336853C38.4810791,50.3867188,38.5,50.8060913,38.5,51.25  c0,0.5522461-0.4472656,1-1,1s-1-0.4477539-1-1c0-0.4653931-0.0178833-0.9125977-0.0513306-1.3438721  c-0.0108032-0.1401367-0.0332031-0.2683105-0.0476074-0.4048462c-0.0298462-0.2836304-0.0587158-0.5682983-0.1037598-0.8361816  c-0.026001-0.1547241-0.0640259-0.2970581-0.0950928-0.4465332c-0.048645-0.2339478-0.0950317-0.4701538-0.1560059-0.6911621  c-0.041687-0.1512451-0.0948486-0.2905273-0.142334-0.43573c-0.0662231-0.2024536-0.1306763-0.4067993-0.2081909-0.5974121  c-0.0576172-0.1417236-0.1256104-0.2723389-0.1894531-0.4074707c-0.0834961-0.1768188-0.1659546-0.3548584-0.2600098-0.5203857  c-0.0736084-0.1294556-0.1564941-0.2487183-0.2365723-0.3711548c-0.1005249-0.1538696-0.2008667-0.3079224-0.3115845-0.4507446  c-0.0895386-0.1154175-0.1873779-0.2218018-0.2835083-0.3300781c-0.1174316-0.1321411-0.2354736-0.2634277-0.362793-0.3847656  c-0.1055908-0.100647-0.2185059-0.1934204-0.3308716-0.2865601c-0.0889893-0.0737305-0.1813354-0.1439209-0.2745361-0.2129517  c-4.2540894,0.6240234-7.8886108,1.4312134-10.828186,2.4058838c0.022644,0.0586548,0.0377808,0.1241455,0.0595703,0.1835938  c0.0541992,0.1480713,0.0993652,0.3040161,0.1481934,0.4569702c0.0975342,0.3053589,0.1862183,0.6183472,0.2622681,0.942627  c0.0403442,0.1722412,0.0782471,0.3462524,0.1124878,0.5237427c0.0661621,0.3425903,0.1184692,0.6967163,0.1618652,1.0585327  c0.0197144,0.1646729,0.0444336,0.3250122,0.0594482,0.4935913C23.4696655,50.1292725,23.5,50.6775513,23.5,51.25  c0,0.5522461-0.4472656,1-1,1s-1-0.4477539-1-1c0-0.5005493-0.0252075-0.9779663-0.0652466-1.4413452  c-0.0128784-0.1488647-0.0346069-0.2893066-0.0516357-0.4342651c-0.0362549-0.3091431-0.0789185-0.6120605-0.1338501-0.9031372  c-0.0296021-0.1569214-0.0636597-0.3094482-0.0986328-0.4609375c-0.0621338-0.2687378-0.1334839-0.5280762-0.2125244-0.7797241  c-0.0435791-0.1387939-0.0859375-0.2788696-0.1347046-0.4124146c-0.0245361-0.0671387-0.0564575-0.1265869-0.0822754-0.1923828  C15.9282227,48.5357666,13.5,50.9297485,13.5,53.75c0.0029297,0.1538086,0.1572266,4,6.5,4h60c6.4257813,0,6.5-3.8369141,6.5-4  C86.5,51.5610352,85.0996094,49.6884766,82.2197266,48.0263672z"/><text x="0" y="115" fill="#000000" font-size="5px" font-weight="bold" font-family="'Helvetica Neue', Helvetica, Arial-Unicode, Arial, Sans-serif">Created by twist.glyph</text><text x="0" y="120" fill="#000000" font-size="5px" font-weight="bold" font-family="'Helvetica Neue', Helvetica, Arial-Unicode, Arial, Sans-serif">from the Noun Project</text></svg>